<svg width="79" height="50" viewBox="0 0 79 50" fill="none" xmlns="http://www.w3.org/2000/svg">
<path d="M53.5714 21.4286C59.5 21.4286 64.25 16.6429 64.25 10.7143C64.25 4.78571 59.5 0 53.5714 0C47.6429 0 42.8571 4.78571 42.8571 10.7143C42.8571 16.6429 47.6429 21.4286 53.5714 21.4286ZM25 21.4286C30.9286 21.4286 35.6786 16.6429 35.6786 10.7143C35.6786 4.78571 30.9286 0 25 0C19.0714 0 14.2857 4.78571 14.2857 10.7143C14.2857 16.6429 19.0714 21.4286 25 21.4286ZM25 28.5714C16.6786 28.5714 0 32.75 0 41.0714V50H50V41.0714C50 32.75 33.3214 28.5714 25 28.5714ZM53.5714 28.5714C52.5357 28.5714 51.3571 28.6429 50.1071 28.75C54.25 31.75 57.1429 35.7857 57.1429 41.0714V50H78.5714V41.0714C78.5714 32.75 61.8929 28.5714 53.5714 28.5714Z" fill="white"></path>
</svg>